<?xml version="1.0" encoding="utf-8"?>
<!-- Generator: Adobe Illustrator 19.0.0, SVG Export Plug-In . SVG Version: 6.00 Build 0)  -->
<svg version="1.1" id="Layer_1" xmlns:sketch="http://www.bohemiancoding.com/sketch/ns"
	 xmlns="http://www.w3.org/2000/svg"  x="0px" y="0px" viewBox="-332.5 371.4 100 100"
	 style="enable-background:new -332.5 371.4 100 100;" xml:space="preserve">
<title>Imported Layers Copy 10</title>
<desc>Created with Sketch.</desc>
<g id="Welcome" sketch:type="MSPage">
	<g id="_x31_.-Add-to-Outline" transform="translate(-19.000000, -166.000000)" sketch:type="MSArtboardGroup">
		<g id="Imported-Layers-Copy-10" transform="translate(19.000000, 166.000000)" sketch:type="MSLayerGroup">
			<path id="Fill-1" sketch:type="MSShapeGroup" d="M-332.5,471.4l4.9-33.7l28.9,28.9L-332.5,471.4"/>
			<path id="Fill-2" sketch:type="MSShapeGroup" d="M-249.8,402.2l-47.2,47l-2.9-2.9l47.2-47l-7.8-7.8l-47,47.2l-2.9-2.9l47-47.2
				l-7.6-7.6l-52.8,52.8l7.6,7.8l2.9,2.8l7.8,7.8l2.8,2.9l7.8,7.6l52.8-52.8L-249.8,402.2"/>
			<path id="Fill-3" sketch:type="MSShapeGroup" d="M-232.5,400.2c0,0-6.8-14.8-10.4-18.4c-3.6-3.6-18.4-10.4-18.4-10.4l-5.8,5.8
				l28.9,28.9L-232.5,400.2"/>
		</g>
	</g>
</g>
</svg>
